<svg width="325" height="90" viewBox="0 0 325 90" fill="none" xmlns="http://www.w3.org/2000/svg">
<rect width="325" height="90" rx="45" fill="#70D6FF"/>
<path d="M106.328 52.24C105.304 54.5867 104.152 56.6347 102.872 58.384C101.635 60.0907 100.312 61.5413 98.904 62.736C97.5387 63.888 96.152 64.7413 94.744 65.296C93.336 65.8507 91.9707 66.128 90.648 66.128C89.3253 66.128 88.1093 65.8293 87 65.232C85.9333 64.6347 84.9947 63.7387 84.184 62.544C83.3733 61.3493 82.712 59.8773 82.2 58.128C81.7307 56.3787 81.496 54.3307 81.496 51.984C81.496 47.9733 82.0507 44.0267 83.16 40.144C84.2693 36.2187 85.8267 32.6987 87.832 29.584C89.8373 26.4693 92.2053 23.9733 94.936 22.096C97.7093 20.176 100.76 19.216 104.088 19.216C105.112 19.216 106.093 19.4293 107.032 19.856C107.971 20.2827 108.781 20.88 109.464 21.648C110.147 22.416 110.68 23.3547 111.064 24.464C111.491 25.5733 111.704 26.8107 111.704 28.176C111.704 28.432 111.704 28.7093 111.704 29.008C111.704 29.264 111.683 29.5413 111.64 29.84L103.256 32.08C102.744 31.0133 102.147 30.48 101.464 30.48C100.781 30.48 100.056 30.8853 99.288 31.696C98.5627 32.464 97.8373 33.488 97.112 34.768C96.3867 36.0053 95.6827 37.4133 95 38.992C94.3173 40.528 93.72 42.0853 93.208 43.664C92.696 45.2427 92.2693 46.7573 91.928 48.208C91.6293 49.616 91.48 50.768 91.48 51.664C91.48 53.0293 91.6507 53.9893 91.992 54.544C92.376 55.0987 92.8667 55.376 93.464 55.376C93.9333 55.376 94.4667 55.2053 95.064 54.864C95.6613 54.48 96.216 54.0107 96.728 53.456C97.24 52.8587 97.7093 52.1973 98.136 51.472C98.5627 50.7467 98.8613 50.0213 99.032 49.296L106.328 52.24ZM129.052 64.72C127.985 64.8907 126.812 65.0827 125.532 65.296C124.252 65.5093 123.1 65.7013 122.076 65.872C122.247 64.464 122.417 63.0773 122.588 61.712C122.716 60.5173 122.823 59.3227 122.908 58.128C123.036 56.9333 123.143 55.9093 123.228 55.056H117.66L115.1 64.272C114.161 64.4 113.052 64.5493 111.772 64.72C110.492 64.848 109.297 64.976 108.188 65.104C106.823 65.2747 105.479 65.4453 104.156 65.616C105.863 59.9413 107.548 54.352 109.212 48.848C109.895 46.544 110.599 44.1333 111.324 41.616C112.092 39.0987 112.839 36.6027 113.564 34.128C114.332 31.6107 115.057 29.2 115.74 26.896C116.423 24.592 117.02 22.48 117.532 20.56C120.433 20.3467 123.377 20.0907 126.364 19.792C129.393 19.4933 132.337 19.088 135.196 18.576C135.068 19.9413 134.919 21.648 134.748 23.696C134.62 25.7013 134.492 27.8987 134.364 30.288C134.236 32.6773 134.108 35.1733 133.98 37.776C133.852 40.3787 133.724 42.9387 133.596 45.456C133.383 51.344 133.148 57.5947 132.892 64.208C131.612 64.4213 130.332 64.592 129.052 64.72ZM119.196 48.656C119.367 48.656 119.665 48.656 120.092 48.656C120.561 48.6133 121.031 48.592 121.5 48.592C122.012 48.5493 122.481 48.528 122.908 48.528C123.335 48.4853 123.633 48.4427 123.804 48.4C123.804 48.144 123.825 47.7173 123.868 47.12C123.953 46.48 124.017 45.776 124.06 45.008C124.145 44.1973 124.231 43.3227 124.316 42.384C124.401 41.4453 124.487 40.528 124.572 39.632C124.743 37.456 124.956 35.1093 125.212 32.592L125.596 27.024L124.636 27.088L123.164 32.592L119.196 48.656ZM150.852 63.952C149.529 63.952 148.121 63.9947 146.628 64.08C145.177 64.1653 143.705 64.2933 142.212 64.464C140.718 64.6347 139.246 64.8693 137.796 65.168C136.388 65.424 135.108 65.744 133.956 66.128C134.212 64.208 134.51 62.0747 134.852 59.728C135.193 57.3813 135.577 54.9493 136.004 52.432C136.473 49.9147 136.921 47.376 137.348 44.816C137.817 42.256 138.286 39.8027 138.756 37.456C139.822 31.8667 140.953 26.1707 142.148 20.368L153.348 18.896C152.196 23.8453 151.086 28.6667 150.02 33.36C149.55 35.3653 149.081 37.456 148.612 39.632C148.142 41.7653 147.694 43.856 147.268 45.904C146.841 47.952 146.457 49.936 146.116 51.856C145.774 53.776 145.497 55.4827 145.284 56.976C146.35 56.8907 147.481 56.848 148.676 56.848C149.913 56.8053 151.001 56.784 151.94 56.784C151.982 57.5947 152.046 58.4053 152.132 59.216C152.217 59.984 152.302 60.688 152.388 61.328C152.516 61.968 152.601 62.544 152.644 63.056C152.729 63.5253 152.793 63.8453 152.836 64.016C152.494 64.016 152.153 64.016 151.812 64.016C151.513 63.9733 151.193 63.952 150.852 63.952ZM179.828 52.24C178.804 54.5867 177.652 56.6347 176.372 58.384C175.135 60.0907 173.812 61.5413 172.404 62.736C171.039 63.888 169.652 64.7413 168.244 65.296C166.836 65.8507 165.471 66.128 164.148 66.128C162.825 66.128 161.609 65.8293 160.5 65.232C159.433 64.6347 158.495 63.7387 157.684 62.544C156.873 61.3493 156.212 59.8773 155.7 58.128C155.231 56.3787 154.996 54.3307 154.996 51.984C154.996 47.9733 155.551 44.0267 156.66 40.144C157.769 36.2187 159.327 32.6987 161.332 29.584C163.337 26.4693 165.705 23.9733 168.436 22.096C171.209 20.176 174.26 19.216 177.588 19.216C178.612 19.216 179.593 19.4293 180.532 19.856C181.471 20.2827 182.281 20.88 182.964 21.648C183.647 22.416 184.18 23.3547 184.564 24.464C184.991 25.5733 185.204 26.8107 185.204 28.176C185.204 28.432 185.204 28.7093 185.204 29.008C185.204 29.264 185.183 29.5413 185.14 29.84L176.756 32.08C176.244 31.0133 175.647 30.48 174.964 30.48C174.281 30.48 173.556 30.8853 172.788 31.696C172.063 32.464 171.337 33.488 170.612 34.768C169.887 36.0053 169.183 37.4133 168.5 38.992C167.817 40.528 167.22 42.0853 166.708 43.664C166.196 45.2427 165.769 46.7573 165.428 48.208C165.129 49.616 164.98 50.768 164.98 51.664C164.98 53.0293 165.151 53.9893 165.492 54.544C165.876 55.0987 166.367 55.376 166.964 55.376C167.433 55.376 167.967 55.2053 168.564 54.864C169.161 54.48 169.716 54.0107 170.228 53.456C170.74 52.8587 171.209 52.1973 171.636 51.472C172.063 50.7467 172.361 50.0213 172.532 49.296L179.828 52.24ZM201.612 64.72C201.228 64.72 200.481 64.784 199.372 64.912C198.263 64.9973 197.111 65.1253 195.916 65.296C194.721 65.424 193.633 65.552 192.652 65.68C191.713 65.808 191.201 65.8933 191.116 65.936C191.628 64.1013 192.14 62.0747 192.652 59.856C193.164 57.5947 193.676 55.248 194.188 52.816C194.743 50.3413 195.255 47.8453 195.724 45.328C196.236 42.8107 196.727 40.3787 197.196 38.032C198.263 32.5707 199.308 26.96 200.332 21.2L210.316 19.6C209.207 25.3173 208.097 30.928 206.988 36.432C206.519 38.7787 206.028 41.2107 205.516 43.728C205.047 46.2453 204.577 48.7413 204.108 51.216C203.681 53.6907 203.233 56.1013 202.764 58.448C202.337 60.752 201.953 62.8427 201.612 64.72ZM210.073 66.064C211.054 61.3707 211.993 56.7413 212.889 52.176C213.273 50.256 213.657 48.2507 214.041 46.16C214.425 44.0693 214.787 42.0213 215.129 40.016C215.513 37.968 215.833 36.0053 216.089 34.128C216.387 32.208 216.643 30.4587 216.857 28.88C215.875 28.752 214.873 28.7093 213.849 28.752C212.867 28.7947 211.886 28.6667 210.905 28.368C210.947 27.6853 210.969 26.896 210.969 26C210.969 25.104 210.99 24.208 211.033 23.312C211.075 22.3307 211.118 21.2853 211.161 20.176C212.27 20.2613 213.379 20.3253 214.489 20.368C215.598 20.4107 216.707 20.432 217.817 20.432C219.993 20.432 222.083 20.3893 224.089 20.304C226.137 20.176 228.014 20.048 229.721 19.92C231.47 19.7493 233.177 19.5573 234.841 19.344L234.137 22.8C233.923 23.7813 233.71 24.784 233.497 25.808C233.326 26.832 233.155 27.7067 232.985 28.432C232.046 28.688 231.086 28.88 230.105 29.008C229.166 29.0933 228.227 29.2213 227.289 29.392C226.99 30.8427 226.67 32.464 226.329 34.256C225.987 36.0053 225.646 37.84 225.305 39.76C225.006 41.6373 224.707 43.5573 224.409 45.52C224.11 47.4827 223.811 49.36 223.513 51.152C222.83 55.376 222.19 59.7493 221.593 64.272L210.073 66.064ZM240.428 50.832C239.191 50.832 237.953 50.8747 236.716 50.96C235.479 51.0453 234.241 51.1307 233.004 51.216C234.327 45.968 235.607 40.7413 236.844 35.536C238.124 30.3307 239.447 25.104 240.812 19.856C241.623 19.728 242.54 19.6 243.564 19.472C244.631 19.344 245.697 19.1947 246.764 19.024C247.831 18.8533 248.855 18.704 249.836 18.576C250.86 18.448 251.713 18.32 252.396 18.192C250.092 23.568 247.98 28.9867 246.06 34.448C244.183 39.8667 242.305 45.328 240.428 50.832ZM241.068 60.88C241.068 61.6907 240.876 62.5013 240.492 63.312C240.151 64.1227 239.639 64.848 238.956 65.488C238.273 66.0853 237.42 66.5547 236.396 66.896C235.372 67.28 234.199 67.472 232.876 67.472C231.98 67.472 231.169 67.3013 230.444 66.96C229.719 66.6187 229.121 66.1707 228.652 65.616C228.225 65.0187 227.884 64.3573 227.628 63.632C227.372 62.9067 227.244 62.1813 227.244 61.456C227.244 60.6453 227.372 59.8773 227.628 59.152C227.884 58.384 228.268 57.7227 228.78 57.168C229.335 56.5707 229.996 56.08 230.764 55.696C231.575 55.312 232.535 55.12 233.644 55.12C236.119 55.12 237.975 55.7173 239.212 56.912C240.449 58.064 241.068 59.3867 241.068 60.88Z" fill="#112A46"/>
</svg>
