<svg width="375" height="44" viewBox="0 0 375 44" fill="none" xmlns="http://www.w3.org/2000/svg">
<path d="M59 0H316C313.501 0.894 311.807 3.23182 311.737 5.88535L311.677 8.1573C311.677 27.9527 295.63 44 275.835 44H99.1653C79.3699 44 63.3226 27.9527 63.3226 8.1573L63.2627 5.88535C63.1926 3.23183 61.4994 0.893999 59 0Z" fill="black"/>
<path d="M159.664 26.12C159.152 27.2933 158.576 28.3173 157.936 29.192C157.317 30.0453 156.656 30.7707 155.952 31.368C155.269 31.944 154.576 32.3707 153.872 32.648C153.168 32.9253 152.485 33.064 151.824 33.064C151.163 33.064 150.555 32.9147 150 32.616C149.467 32.3173 148.997 31.8693 148.592 31.272C148.187 30.6747 147.856 29.9387 147.6 29.064C147.365 28.1893 147.248 27.1653 147.248 25.992C147.248 23.9867 147.525 22.0133 148.08 20.072C148.635 18.1093 149.413 16.3493 150.416 14.792C151.419 13.2347 152.603 11.9867 153.968 11.048C155.355 10.088 156.88 9.608 158.544 9.608C159.056 9.608 159.547 9.71467 160.016 9.928C160.485 10.1413 160.891 10.44 161.232 10.824C161.573 11.208 161.84 11.6773 162.032 12.232C162.245 12.7867 162.352 13.4053 162.352 14.088C162.352 14.216 162.352 14.3547 162.352 14.504C162.352 14.632 162.341 14.7707 162.32 14.92L158.128 16.04C157.872 15.5067 157.573 15.24 157.232 15.24C156.891 15.24 156.528 15.4427 156.144 15.848C155.781 16.232 155.419 16.744 155.056 17.384C154.693 18.0027 154.341 18.7067 154 19.496C153.659 20.264 153.36 21.0427 153.104 21.832C152.848 22.6213 152.635 23.3787 152.464 24.104C152.315 24.808 152.24 25.384 152.24 25.832C152.24 26.5147 152.325 26.9947 152.496 27.272C152.688 27.5493 152.933 27.688 153.232 27.688C153.467 27.688 153.733 27.6027 154.032 27.432C154.331 27.24 154.608 27.0053 154.864 26.728C155.12 26.4293 155.355 26.0987 155.568 25.736C155.781 25.3733 155.931 25.0107 156.016 24.648L159.664 26.12ZM171.026 32.36C170.493 32.4453 169.906 32.5413 169.266 32.648C168.626 32.7547 168.05 32.8507 167.538 32.936C167.623 32.232 167.709 31.5387 167.794 30.856C167.858 30.2587 167.911 29.6613 167.954 29.064C168.018 28.4667 168.071 27.9547 168.114 27.528H165.33L164.05 32.136C163.581 32.2 163.026 32.2747 162.386 32.36C161.746 32.424 161.149 32.488 160.594 32.552C159.911 32.6373 159.239 32.7227 158.578 32.808C159.431 29.9707 160.274 27.176 161.106 24.424C161.447 23.272 161.799 22.0667 162.162 20.808C162.546 19.5493 162.919 18.3013 163.282 17.064C163.666 15.8053 164.029 14.6 164.37 13.448C164.711 12.296 165.01 11.24 165.266 10.28C166.717 10.1733 168.189 10.0453 169.682 9.896C171.197 9.74667 172.669 9.544 174.098 9.288C174.034 9.97066 173.959 10.824 173.874 11.848C173.81 12.8507 173.746 13.9493 173.682 15.144C173.618 16.3387 173.554 17.5867 173.49 18.888C173.426 20.1893 173.362 21.4693 173.298 22.728C173.191 25.672 173.074 28.7973 172.946 32.104C172.306 32.2107 171.666 32.296 171.026 32.36ZM166.098 24.328C166.183 24.328 166.333 24.328 166.546 24.328C166.781 24.3067 167.015 24.296 167.25 24.296C167.506 24.2747 167.741 24.264 167.954 24.264C168.167 24.2427 168.317 24.2213 168.402 24.2C168.402 24.072 168.413 23.8587 168.434 23.56C168.477 23.24 168.509 22.888 168.53 22.504C168.573 22.0987 168.615 21.6613 168.658 21.192C168.701 20.7227 168.743 20.264 168.786 19.816C168.871 18.728 168.978 17.5547 169.106 16.296L169.298 13.512L168.818 13.544L168.082 16.296L166.098 24.328ZM181.926 31.976C181.264 31.976 180.56 31.9973 179.814 32.04C179.088 32.0827 178.352 32.1467 177.606 32.232C176.859 32.3173 176.123 32.4347 175.398 32.584C174.694 32.712 174.054 32.872 173.478 33.064C173.606 32.104 173.755 31.0373 173.926 29.864C174.096 28.6907 174.288 27.4747 174.502 26.216C174.736 24.9573 174.96 23.688 175.174 22.408C175.408 21.128 175.643 19.9013 175.878 18.728C176.411 15.9333 176.976 13.0853 177.574 10.184L183.174 9.448C182.598 11.9227 182.043 14.3333 181.51 16.68C181.275 17.6827 181.04 18.728 180.806 19.816C180.571 20.8827 180.347 21.928 180.134 22.952C179.92 23.976 179.728 24.968 179.558 25.928C179.387 26.888 179.248 27.7413 179.142 28.488C179.675 28.4453 180.24 28.424 180.838 28.424C181.456 28.4027 182 28.392 182.47 28.392C182.491 28.7973 182.523 29.2027 182.566 29.608C182.608 29.992 182.651 30.344 182.694 30.664C182.758 30.984 182.8 31.272 182.822 31.528C182.864 31.7627 182.896 31.9227 182.918 32.008C182.747 32.008 182.576 32.008 182.406 32.008C182.256 31.9867 182.096 31.976 181.926 31.976ZM196.414 26.12C195.902 27.2933 195.326 28.3173 194.686 29.192C194.067 30.0453 193.406 30.7707 192.702 31.368C192.019 31.944 191.326 32.3707 190.622 32.648C189.918 32.9253 189.235 33.064 188.574 33.064C187.913 33.064 187.305 32.9147 186.75 32.616C186.217 32.3173 185.747 31.8693 185.342 31.272C184.937 30.6747 184.606 29.9387 184.35 29.064C184.115 28.1893 183.998 27.1653 183.998 25.992C183.998 23.9867 184.275 22.0133 184.83 20.072C185.385 18.1093 186.163 16.3493 187.166 14.792C188.169 13.2347 189.353 11.9867 190.718 11.048C192.105 10.088 193.63 9.608 195.294 9.608C195.806 9.608 196.297 9.71467 196.766 9.928C197.235 10.1413 197.641 10.44 197.982 10.824C198.323 11.208 198.59 11.6773 198.782 12.232C198.995 12.7867 199.102 13.4053 199.102 14.088C199.102 14.216 199.102 14.3547 199.102 14.504C199.102 14.632 199.091 14.7707 199.07 14.92L194.878 16.04C194.622 15.5067 194.323 15.24 193.982 15.24C193.641 15.24 193.278 15.4427 192.894 15.848C192.531 16.232 192.169 16.744 191.806 17.384C191.443 18.0027 191.091 18.7067 190.75 19.496C190.409 20.264 190.11 21.0427 189.854 21.832C189.598 22.6213 189.385 23.3787 189.214 24.104C189.065 24.808 188.99 25.384 188.99 25.832C188.99 26.5147 189.075 26.9947 189.246 27.272C189.438 27.5493 189.683 27.688 189.982 27.688C190.217 27.688 190.483 27.6027 190.782 27.432C191.081 27.24 191.358 27.0053 191.614 26.728C191.87 26.4293 192.105 26.0987 192.318 25.736C192.531 25.3733 192.681 25.0107 192.766 24.648L196.414 26.12ZM207.306 32.36C207.114 32.36 206.741 32.392 206.186 32.456C205.631 32.4987 205.055 32.5627 204.458 32.648C203.861 32.712 203.317 32.776 202.826 32.84C202.357 32.904 202.101 32.9467 202.058 32.968C202.314 32.0507 202.57 31.0373 202.826 29.928C203.082 28.7973 203.338 27.624 203.594 26.408C203.871 25.1707 204.127 23.9227 204.362 22.664C204.618 21.4053 204.863 20.1893 205.098 19.016C205.631 16.2853 206.154 13.48 206.666 10.6L211.658 9.8C211.103 12.6587 210.549 15.464 209.994 18.216C209.759 19.3893 209.514 20.6053 209.258 21.864C209.023 23.1227 208.789 24.3707 208.554 25.608C208.341 26.8453 208.117 28.0507 207.882 29.224C207.669 30.376 207.477 31.4213 207.306 32.36ZM211.536 33.032C212.027 30.6853 212.496 28.3707 212.944 26.088C213.136 25.128 213.328 24.1253 213.52 23.08C213.712 22.0347 213.894 21.0107 214.064 20.008C214.256 18.984 214.416 18.0027 214.544 17.064C214.694 16.104 214.822 15.2293 214.928 14.44C214.438 14.376 213.936 14.3547 213.424 14.376C212.934 14.3973 212.443 14.3333 211.952 14.184C211.974 13.8427 211.984 13.448 211.984 13C211.984 12.552 211.995 12.104 212.016 11.656C212.038 11.1653 212.059 10.6427 212.08 10.088C212.635 10.1307 213.19 10.1627 213.744 10.184C214.299 10.2053 214.854 10.216 215.408 10.216C216.496 10.216 217.542 10.1947 218.544 10.152C219.568 10.088 220.507 10.024 221.36 9.96C222.235 9.87467 223.088 9.77867 223.92 9.672L223.568 11.4C223.462 11.8907 223.355 12.392 223.248 12.904C223.163 13.416 223.078 13.8533 222.992 14.216C222.523 14.344 222.043 14.44 221.552 14.504C221.083 14.5467 220.614 14.6107 220.144 14.696C219.995 15.4213 219.835 16.232 219.664 17.128C219.494 18.0027 219.323 18.92 219.152 19.88C219.003 20.8187 218.854 21.7787 218.704 22.76C218.555 23.7413 218.406 24.68 218.256 25.576C217.915 27.688 217.595 29.8747 217.296 32.136L211.536 33.032ZM226.714 25.416C226.095 25.416 225.477 25.4373 224.858 25.48C224.239 25.5227 223.621 25.5653 223.002 25.608C223.663 22.984 224.303 20.3707 224.922 17.768C225.562 15.1653 226.223 12.552 226.906 9.928C227.311 9.864 227.77 9.8 228.282 9.736C228.815 9.672 229.349 9.59733 229.882 9.512C230.415 9.42667 230.927 9.352 231.418 9.288C231.93 9.224 232.357 9.16 232.698 9.096C231.546 11.784 230.49 14.4933 229.53 17.224C228.591 19.9333 227.653 22.664 226.714 25.416ZM227.034 30.44C227.034 30.8453 226.938 31.2507 226.746 31.656C226.575 32.0613 226.319 32.424 225.978 32.744C225.637 33.0427 225.21 33.2773 224.698 33.448C224.186 33.64 223.599 33.736 222.938 33.736C222.49 33.736 222.085 33.6507 221.722 33.48C221.359 33.3093 221.061 33.0853 220.826 32.808C220.613 32.5093 220.442 32.1787 220.314 31.816C220.186 31.4533 220.122 31.0907 220.122 30.728C220.122 30.3227 220.186 29.9387 220.314 29.576C220.442 29.192 220.634 28.8613 220.89 28.584C221.167 28.2853 221.498 28.04 221.882 27.848C222.287 27.656 222.767 27.56 223.322 27.56C224.559 27.56 225.487 27.8587 226.106 28.456C226.725 29.032 227.034 29.6933 227.034 30.44Z" fill="white"/>
</svg>
